<svg xmlns="http://www.w3.org/2000/svg" viewBox="0 0 512 512" style="height: 512px; width: 512px;"><defs><filter id="shadow-1" height="300%" width="300%" x="-100%" y="-100%"><feFlood flood-color="rgba(16, 15, 15, 1)" result="flood"></feFlood><feComposite in="flood" in2="SourceGraphic" operator="atop" result="composite"></feComposite><feGaussianBlur in="composite" stdDeviation="3" result="blur"></feGaussianBlur><feOffset dx="5" dy="0" result="offset"></feOffset><feComposite in="SourceGraphic" in2="offset" operator="over"></feComposite></filter><filter id="shadow-2" height="300%" width="300%" x="-100%" y="-100%"><feFlood flood-color="rgba(16, 15, 15, 1)" result="flood"></feFlood><feComposite in="flood" in2="SourceGraphic" operator="atop" result="composite"></feComposite><feGaussianBlur in="composite" stdDeviation="3" result="blur"></feGaussianBlur><feOffset dx="5" dy="0" result="offset"></feOffset><feComposite in="SourceGraphic" in2="offset" operator="over"></feComposite></filter><filter id="shadow-3" height="300%" width="300%" x="-100%" y="-100%"><feFlood flood-color="rgba(16, 15, 15, 1)" result="flood"></feFlood><feComposite in="flood" in2="SourceGraphic" operator="atop" result="composite"></feComposite><feGaussianBlur in="composite" stdDeviation="3" result="blur"></feGaussianBlur><feOffset dx="5" dy="0" result="offset"></feOffset><feComposite in="SourceGraphic" in2="offset" operator="over"></feComposite></filter><filter id="shadow-4" height="300%" width="300%" x="-100%" y="-100%"><feFlood flood-color="rgba(16, 15, 15, 1)" result="flood"></feFlood><feComposite in="flood" in2="SourceGraphic" operator="atop" result="composite"></feComposite><feGaussianBlur in="composite" stdDeviation="3" result="blur"></feGaussianBlur><feOffset dx="5" dy="0" result="offset"></feOffset><feComposite in="SourceGraphic" in2="offset" operator="over"></feComposite></filter><filter id="shadow-5" height="300%" width="300%" x="-100%" y="-100%"><feFlood flood-color="rgba(16, 15, 15, 1)" result="flood"></feFlood><feComposite in="flood" in2="SourceGraphic" operator="atop" result="composite"></feComposite><feGaussianBlur in="composite" stdDeviation="3" result="blur"></feGaussianBlur><feOffset dx="5" dy="0" result="offset"></feOffset><feComposite in="SourceGraphic" in2="offset" operator="over"></feComposite></filter><filter id="shadow-6" height="300%" width="300%" x="-100%" y="-100%"><feFlood flood-color="rgba(16, 15, 15, 1)" result="flood"></feFlood><feComposite in="flood" in2="SourceGraphic" operator="atop" result="composite"></feComposite><feGaussianBlur in="composite" stdDeviation="3" result="blur"></feGaussianBlur><feOffset dx="5" dy="0" result="offset"></feOffset><feComposite in="SourceGraphic" in2="offset" operator="over"></feComposite></filter></defs><path d="M0 0h512v512H0z" fill="#ff0000" fill-opacity="0"></path><g class="" transform="translate(0,0)" style=""><g><path d="M18.53 19.688L18.53 61.03C90.573 74.57 154.574 95.816 223.656 124.937L223.656 124.969C236.483 129.529 245.64 137.075 250.5 146.155C255.44 155.385 255.768 165.865 252.25 174.718C246.023 190.388 227.443 200.291 206.47 195.092C196.125 215.019 182.54 234.715 164.063 254.029C175.203 261.034 186.576 267.189 198.25 272.561L307.5 272.561C327.716 218.165 340.477 162.868 345.844 111.624C241.326 96.404 142.224 64.951 48.031 19.686L18.531 19.686Z" class="selected" fill="#000000" fill-opacity="1" stroke="#000000" stroke-opacity="1" stroke-width="8" filter="url(#shadow-2)"></path><path d="M335.625 248.688C333.045 256.718 330.299 264.768 327.405 272.781L356.345 272.781L356.345 291.471L194.655 291.471L194.655 291.251L194.062 291.251L192.219 290.407C175.609 282.894 159.612 273.877 144.093 263.345L140.937 261.22C129.994 265.66 121.232 270.63 115.374 275.562C108.351 281.477 105.811 286.628 105.811 291.156C105.811 295.686 108.351 300.866 115.374 306.781C122.397 312.697 133.542 318.681 147.687 323.721C175.977 333.796 216.164 340.281 260.593 340.281C305.021 340.281 345.241 333.796 373.53 323.721C387.676 318.681 398.82 312.697 405.844 306.781C412.867 300.868 415.406 295.686 415.406 291.157C415.406 286.63 412.866 281.477 405.844 275.563C398.82 269.649 387.676 263.663 373.531 258.626C362.547 254.713 349.757 251.349 335.626 248.688Z" class="" fill="#5f320b" fill-opacity="1" stroke="#000000" stroke-opacity="1" stroke-width="8" filter="url(#shadow-3)"></path><path d="M101.595 319.531C96.551 401.934 61.467 422.515 30.155 444.626C50.725 449.162 73.835 453.056 97.095 452.189C122.299 442.343 148.538 415.901 167.5 394.719C159.346 414.493 147.9 433.743 132.937 453.095L106.97 492.53C151.508 485.143 193.38 475.295 236.22 446.156C228.278 425.323 222.242 405.033 218 384.969C234.816 411.779 253.478 437.734 275.125 461.624C275.155 461.657 275.189 461.684 275.219 461.718L307.186 492.373C332.362 460.945 350.934 426.837 365.749 392.498C365.596 408.373 364.299 424.798 360.749 442.092C404.722 452.016 448.682 445.677 492.655 444.622C447.825 426.385 421.901 390.002 417.311 321.529C407.781 329.396 395.071 335.876 379.811 341.312C348.691 352.396 306.821 358.968 260.593 358.968C214.366 358.968 172.525 352.395 141.405 341.31C125.845 335.768 112.932 329.136 103.343 321.06C102.743 320.556 102.168 320.05 101.593 319.53Z" class="" fill="#673306" fill-opacity="1" stroke="#000000" stroke-opacity="1" stroke-width="8" filter="url(#shadow-4)"></path></g></g></svg>