<svg xmlns="http://www.w3.org/2000/svg" viewBox="0 0 512 512" style="height: 512px; width: 512px;"><defs><filter id="shadow-1" height="300%" width="300%" x="-100%" y="-100%"><feFlood flood-color="rgba(16, 15, 15, 1)" result="flood"></feFlood><feComposite in="flood" in2="SourceGraphic" operator="atop" result="composite"></feComposite><feGaussianBlur in="composite" stdDeviation="3" result="blur"></feGaussianBlur><feOffset dx="5" dy="0" result="offset"></feOffset><feComposite in="SourceGraphic" in2="offset" operator="over"></feComposite></filter><filter id="shadow-2" height="300%" width="300%" x="-100%" y="-100%"><feFlood flood-color="rgba(16, 15, 15, 1)" result="flood"></feFlood><feComposite in="flood" in2="SourceGraphic" operator="atop" result="composite"></feComposite><feGaussianBlur in="composite" stdDeviation="3" result="blur"></feGaussianBlur><feOffset dx="5" dy="0" result="offset"></feOffset><feComposite in="SourceGraphic" in2="offset" operator="over"></feComposite></filter><filter id="shadow-3" height="300%" width="300%" x="-100%" y="-100%"><feFlood flood-color="rgba(16, 15, 15, 1)" result="flood"></feFlood><feComposite in="flood" in2="SourceGraphic" operator="atop" result="composite"></feComposite><feGaussianBlur in="composite" stdDeviation="3" result="blur"></feGaussianBlur><feOffset dx="5" dy="0" result="offset"></feOffset><feComposite in="SourceGraphic" in2="offset" operator="over"></feComposite></filter><filter id="shadow-4" height="300%" width="300%" x="-100%" y="-100%"><feFlood flood-color="rgba(16, 15, 15, 1)" result="flood"></feFlood><feComposite in="flood" in2="SourceGraphic" operator="atop" result="composite"></feComposite><feGaussianBlur in="composite" stdDeviation="3" result="blur"></feGaussianBlur><feOffset dx="5" dy="0" result="offset"></feOffset><feComposite in="SourceGraphic" in2="offset" operator="over"></feComposite></filter><filter id="shadow-5" height="300%" width="300%" x="-100%" y="-100%"><feFlood flood-color="rgba(16, 15, 15, 1)" result="flood"></feFlood><feComposite in="flood" in2="SourceGraphic" operator="atop" result="composite"></feComposite><feGaussianBlur in="composite" stdDeviation="3" result="blur"></feGaussianBlur><feOffset dx="5" dy="0" result="offset"></feOffset><feComposite in="SourceGraphic" in2="offset" operator="over"></feComposite></filter><filter id="shadow-6" height="300%" width="300%" x="-100%" y="-100%"><feFlood flood-color="rgba(16, 15, 15, 1)" result="flood"></feFlood><feComposite in="flood" in2="SourceGraphic" operator="atop" result="composite"></feComposite><feGaussianBlur in="composite" stdDeviation="3" result="blur"></feGaussianBlur><feOffset dx="5" dy="0" result="offset"></feOffset><feComposite in="SourceGraphic" in2="offset" operator="over"></feComposite></filter></defs><path d="M0 0h512v512H0z" fill="#ff0000" fill-opacity="0"></path><g class="" transform="translate(0,0)" style=""><g><path d="M273.3 27.85L273.3 62.06L248.5 67.03L252.1 84.67L273.3 80.43L273.3 136.9L232.1 147.1L236.5 164.5L273.3 155.4L273.3 355C279.3 354.8 285.3 354.7 291.3 354.5L291.3 150.9L348.5 136.7L344.1 119.3L291.3 132.4L291.3 76.83L332.1 68.66L328.5 51.01L291.3 58.46L291.3 27.85Z" class="" fill="#000000" fill-opacity="1" stroke="#000000" stroke-opacity="1" stroke-width="8" filter="url(#shadow-2)"></path><path d="M177.3 171.9L177.3 206.1L152.5 211.1L156.1 228.7L177.3 224.5L177.3 280.9L136.1 291.2L140.5 308.6L177.3 299.4L177.3 356.6C183.3 356.6 189.3 356.5 195.3 356.4L195.3 294.9L252.5 280.7L248.1 263.3L195.3 276.5L195.3 220.9L236.1 212.7L232.5 195.1L195.3 202.5L195.3 171.9Z" class="" fill="#000000" fill-opacity="1" stroke="#000000" stroke-opacity="1" stroke-width="8" filter="url(#shadow-3)"></path><path d="M369.3 171.9L369.3 206.1L344.5 211.1L348.1 228.7L369.3 224.5L369.3 280.9L328.1 291.2L332.5 308.6L369.3 299.4L369.3 351.5C375.4 351.2 381.4 350.9 387.3 350.5L387.3 294.9L444.5 280.6L440.1 263.2L387.3 276.4L387.3 220.9L428.1 212.7L424.5 195.1L387.3 202.5L387.3 171.9Z" class="" fill="#000000" fill-opacity="1" stroke="#000000" stroke-opacity="1" stroke-width="8" filter="url(#shadow-4)"></path><path d="M22.18 326.5L29.44 355.5C58.54 356.3 92.62 356.7 129.3 356.8L129.3 339.8Z" class="" fill="#f8e71c" fill-opacity="1" stroke="#000000" stroke-opacity="1" stroke-width="8" filter="url(#shadow-5)"></path><path d="M492.8 360.1C381.6 374 150 377.2 21.86 373.2L33.29 418.9L60.35 418.9L19.23 470.3L33.29 481.5L83.35 418.9L108.4 418.9L67.2 470.3L81.26 481.5L131.4 418.9L156.4 418.9L115.3 470.3L129.3 481.5L179.4 418.8L204.4 418.8L163.3 470.2L177.3 481.4L227.4 418.8L254.6 418.8L211.3 472.9L225.3 484.1L277.5 418.8L302.5 418.8L259.2 472.9L273.2 484.1L325.4 418.8L350.5 418.8L307.2 472.9L321.2 484.1L373.5 418.8L398.6 418.8L355.3 472.9L369.3 484.1L421.5 418.8L445.7 418.8Z" class="selected" fill="#000000" fill-opacity="1" stroke="#000000" stroke-opacity="1" stroke-width="8" filter="url(#shadow-6)"></path></g></g></svg>