<svg xmlns="http://www.w3.org/2000/svg" viewBox="0 0 512 512" style="height: 512px; width: 512px;"><defs><filter id="shadow-1" height="300%" width="300%" x="-100%" y="-100%"><feFlood flood-color="rgba(16, 15, 15, 1)" result="flood"></feFlood><feComposite in="flood" in2="SourceGraphic" operator="atop" result="composite"></feComposite><feGaussianBlur in="composite" stdDeviation="3" result="blur"></feGaussianBlur><feOffset dx="5" dy="0" result="offset"></feOffset><feComposite in="SourceGraphic" in2="offset" operator="over"></feComposite></filter><filter id="shadow-2" height="300%" width="300%" x="-100%" y="-100%"><feFlood flood-color="rgba(16, 15, 15, 1)" result="flood"></feFlood><feComposite in="flood" in2="SourceGraphic" operator="atop" result="composite"></feComposite><feGaussianBlur in="composite" stdDeviation="3" result="blur"></feGaussianBlur><feOffset dx="5" dy="0" result="offset"></feOffset><feComposite in="SourceGraphic" in2="offset" operator="over"></feComposite></filter><filter id="shadow-3" height="300%" width="300%" x="-100%" y="-100%"><feFlood flood-color="rgba(16, 15, 15, 1)" result="flood"></feFlood><feComposite in="flood" in2="SourceGraphic" operator="atop" result="composite"></feComposite><feGaussianBlur in="composite" stdDeviation="3" result="blur"></feGaussianBlur><feOffset dx="5" dy="0" result="offset"></feOffset><feComposite in="SourceGraphic" in2="offset" operator="over"></feComposite></filter><filter id="shadow-4" height="300%" width="300%" x="-100%" y="-100%"><feFlood flood-color="rgba(16, 15, 15, 1)" result="flood"></feFlood><feComposite in="flood" in2="SourceGraphic" operator="atop" result="composite"></feComposite><feGaussianBlur in="composite" stdDeviation="3" result="blur"></feGaussianBlur><feOffset dx="5" dy="0" result="offset"></feOffset><feComposite in="SourceGraphic" in2="offset" operator="over"></feComposite></filter><filter id="shadow-5" height="300%" width="300%" x="-100%" y="-100%"><feFlood flood-color="rgba(16, 15, 15, 1)" result="flood"></feFlood><feComposite in="flood" in2="SourceGraphic" operator="atop" result="composite"></feComposite><feGaussianBlur in="composite" stdDeviation="3" result="blur"></feGaussianBlur><feOffset dx="5" dy="0" result="offset"></feOffset><feComposite in="SourceGraphic" in2="offset" operator="over"></feComposite></filter><filter id="shadow-6" height="300%" width="300%" x="-100%" y="-100%"><feFlood flood-color="rgba(16, 15, 15, 1)" result="flood"></feFlood><feComposite in="flood" in2="SourceGraphic" operator="atop" result="composite"></feComposite><feGaussianBlur in="composite" stdDeviation="3" result="blur"></feGaussianBlur><feOffset dx="5" dy="0" result="offset"></feOffset><feComposite in="SourceGraphic" in2="offset" operator="over"></feComposite></filter><filter id="shadow-7" height="300%" width="300%" x="-100%" y="-100%"><feFlood flood-color="rgba(16, 15, 15, 1)" result="flood"></feFlood><feComposite in="flood" in2="SourceGraphic" operator="atop" result="composite"></feComposite><feGaussianBlur in="composite" stdDeviation="3" result="blur"></feGaussianBlur><feOffset dx="5" dy="0" result="offset"></feOffset><feComposite in="SourceGraphic" in2="offset" operator="over"></feComposite></filter><filter id="shadow-8" height="300%" width="300%" x="-100%" y="-100%"><feFlood flood-color="rgba(16, 15, 15, 1)" result="flood"></feFlood><feComposite in="flood" in2="SourceGraphic" operator="atop" result="composite"></feComposite><feGaussianBlur in="composite" stdDeviation="3" result="blur"></feGaussianBlur><feOffset dx="5" dy="0" result="offset"></feOffset><feComposite in="SourceGraphic" in2="offset" operator="over"></feComposite></filter><filter id="shadow-9" height="300%" width="300%" x="-100%" y="-100%"><feFlood flood-color="rgba(16, 15, 15, 1)" result="flood"></feFlood><feComposite in="flood" in2="SourceGraphic" operator="atop" result="composite"></feComposite><feGaussianBlur in="composite" stdDeviation="3" result="blur"></feGaussianBlur><feOffset dx="5" dy="0" result="offset"></feOffset><feComposite in="SourceGraphic" in2="offset" operator="over"></feComposite></filter><filter id="shadow-10" height="300%" width="300%" x="-100%" y="-100%"><feFlood flood-color="rgba(16, 15, 15, 1)" result="flood"></feFlood><feComposite in="flood" in2="SourceGraphic" operator="atop" result="composite"></feComposite><feGaussianBlur in="composite" stdDeviation="3" result="blur"></feGaussianBlur><feOffset dx="5" dy="0" result="offset"></feOffset><feComposite in="SourceGraphic" in2="offset" operator="over"></feComposite></filter></defs><path d="M0 0h512v512H0z" fill="#ff0000" fill-opacity="0"></path><g class="" transform="translate(0,0)" style=""><g><path d="M155.268 19.918C144.988 19.996 134.636 24.392 134.308 33.033C134.285 45.627 144.944 47.996 155.262 47.857C164.498 48.27 177.762 43.564 175.758 32.74C175.773 24.09 165.558 19.84 155.268 19.918Z" class="" fill="#000000" fill-opacity="1" stroke="#000000" stroke-opacity="1" stroke-width="8" filter="url(#shadow-2)"></path><path d="M361.77 26.498L345.46 45.34L308.004 54.95L334.194 77.393L340.512 99.775L374.295 90.672L418.463 99.357L459.093 83.625L453.781 69.27L479.201 59.61L451.087 46.486L444.917 26.789L402.727 34.039L361.77 26.5Z" class="" fill="#000000" fill-opacity="1" stroke="#000000" stroke-opacity="1" stroke-width="8" filter="url(#shadow-3)"></path><path d="M193.752 35.81C194.947 57.364 171.677 65.752 155.452 65.855C139.029 65.96 116.424 57.977 116.302 35.945C109.952 36.861 103.096 37.928 95.408 39.18C99.801 44.007 103.628 49.847 106.83 56.285C115.553 73.821 120.554 96.953 120.51 122.425C120.466 147.899 115.387 171.029 106.604 188.563C103.381 194.993 99.538 200.831 95.134 205.653C113.488 211.953 189.508 217.37 242.941 202.059C250.305 199.906 259.421 195.282 266.634 180.884C273.847 166.486 278.672 145.594 278.712 122.448C278.752 99.301 273.999 78.41 266.836 64.01C259.673 49.61 250.816 43.84 243.216 42.83C225.756 39.79 210.294 38.182 193.754 35.81Z" class="" fill="#000000" fill-opacity="1" stroke="#000000" stroke-opacity="1" stroke-width="8" filter="url(#shadow-4)"></path><path d="M67.79 43.57C60.55 43.57 51.94 50.06 44.795 64.32C37.651 78.58 32.838 99.37 32.799 122.416C32.759 145.461 37.499 166.256 44.595 180.518C51.689 194.778 60.278 201.268 67.517 201.27C74.755 201.27 83.369 194.783 90.513 180.523C97.656 166.265 102.469 145.473 102.509 122.427C102.524 113.683 101.929 105.251 100.619 97.401C100.147 94.561 80.466 109.825 80.466 109.825C80.466 109.825 97.97 84.32 97.34 82.04C95.51 75.423 93.263 69.45 90.713 64.324C83.618 50.062 75.028 43.57 67.79 43.568Z" class="" fill="#000000" fill-opacity="1" stroke="#000000" stroke-opacity="1" stroke-width="8" filter="url(#shadow-5)"></path><path d="M448.297 106.25L420.41 118.086L405.172 115.09L405.486 309.3L448.592 287.734L448.297 106.25Z" class="" fill="#000000" fill-opacity="1" stroke="#000000" stroke-opacity="1" stroke-width="8" filter="url(#shadow-6)"></path><path d="M374.932 109.145L343.722 117.553L344.292 281.185L387.482 307.737L387.166 111.552L374.932 109.145Z" class="" fill="#000000" fill-opacity="1" stroke="#000000" stroke-opacity="1" stroke-width="8" filter="url(#shadow-7)"></path><path d="M133.972 229.12L133.562 468.31C133.547 475.988 136.092 480.6 139.802 483.906C143.509 487.214 148.806 489.07 154.234 489.07C159.662 489.07 164.974 487.216 168.704 483.902C172.432 480.588 174.997 475.964 175.01 468.287L175.418 229.213C160.924 230.468 148.563 230.439 133.971 229.121Z" class="" fill="#000000" fill-opacity="1" stroke="#000000" stroke-opacity="1" stroke-width="8" filter="url(#shadow-8)"></path><path d="M348.596 304.957L394.971 492.055L387.561 354.553L387.521 328.885L348.597 304.957Z" class="" fill="#4a4a4a" fill-opacity="1" stroke="#000000" stroke-opacity="1" stroke-width="8" filter="url(#shadow-9)"></path><path d="M444.762 309.777L405.52 329.407L405.56 354.523L395.035 492.083L444.762 309.777Z" class="selected" fill="#4a4a4a" fill-opacity="1" stroke="#000000" stroke-opacity="1" stroke-width="8" filter="url(#shadow-10)"></path></g></g></svg>